<svg width="100" height="72" viewBox="0 0 100 72" fill="none" xmlns="http://www.w3.org/2000/svg">
<g clip-path="url(#clip0_2_22284)">
<path d="M99.9762 16.8915C99.9762 16.8915 99.9715 16.8915 99.9692 16.9032C98.7133 27.216 96.1145 35.8425 93.1018 42.8581C93.1441 52.1502 93.1018 60.4427 93.1018 60.7132H96.5919H99.9974C99.9974 60.1605 99.9833 18.6577 99.9762 16.8915Z" fill="#BB2A26"/>
<path d="M78.9858 53.8317C80.1382 52.2301 81.3612 50.3839 82.5935 48.2626C84.2939 40.8472 84.8725 32.9404 84.2351 24.9394C84.2328 24.9488 84.2328 24.9324 84.2304 24.9418C82.269 30.9625 79.7431 36.5504 76.7281 41.574C75.4346 50.2663 72.5136 58.3755 68.1227 65.264C68.1227 65.264 68.1156 65.2569 68.1274 65.264C68.5202 64.9888 73.5554 61.3764 78.9858 53.8294V53.8317Z" fill="#FFCA05"/>
<path d="M28.111 71.9103C20.9591 71.9103 14.9431 70.1347 10.1853 66.6093C4.64674 62.51 1.20601 56.2095 0.2347 48.3896C-0.767182 40.3252 1.46001 31.3341 6.50469 23.0721C11.6482 14.6502 19.381 7.66525 28.278 3.40608C36.7093 -0.629672 45.3029 -1.10239 51.8551 2.11257C56.6858 4.48086 59.9784 8.72122 61.126 14.0505C62.1326 18.7165 60.872 23.6648 57.6712 27.63C53.2427 33.1144 45.7662 36.1366 36.6199 36.1366V29.1398C46.0531 29.1398 50.4487 25.4404 52.2291 23.2344C54.0964 20.9225 54.8466 18.1121 54.2893 15.5227C53.5908 12.2843 51.6834 9.81718 48.7766 8.39196C44.2258 6.16007 37.6924 6.65396 31.3001 9.71605C23.6096 13.3967 16.9233 19.4362 12.476 26.7198C8.2521 33.6366 6.37064 41.026 7.17731 47.5288C7.90638 53.4014 10.3852 58.0556 14.3481 60.9884C18.7154 64.2222 24.762 65.4686 32.3184 64.6902C33.9835 64.5185 42.7935 63.3332 52.7864 56.8303C64.3316 49.3162 72.6759 37.8581 77.5842 22.7758L84.2375 24.9418C81.3095 33.9399 77.1679 41.8962 71.9257 48.5966C67.556 54.1798 62.4031 58.9235 56.6035 62.6958C45.2629 70.0759 34.9831 71.4517 33.0381 71.6516C31.3424 71.8256 29.6985 71.9127 28.1133 71.9127L28.111 71.9103Z" fill="#1075BB"/>
<path d="M72.0317 71.066L68.1206 65.264C68.1206 65.264 73.3558 61.6516 78.9861 53.8317C84.1742 46.6257 90.8205 34.2198 93.0312 16.0472L99.9762 16.8915C97.5632 36.7292 90.1926 50.3252 84.4353 58.2344C78.0994 66.9362 72.2763 70.9014 72.0317 71.066Z" fill="#ED4224"/>
<path d="M38.8775 20.2781L40.5378 19.0693H38.487L37.8521 17.1055L37.2171 19.0693H35.1663L36.8267 20.2781L36.194 22.2349L37.8521 21.0237L39.5101 22.2349L38.8775 20.2781Z" fill="#FFCA05"/>
<path d="M47.3912 22.5665L49.0493 21.3577H46.9985L46.3658 19.3962L45.7261 21.3577H43.6801L45.3404 22.5665L44.7055 24.5279L46.3658 23.3167L48.0192 24.5279L47.3912 22.5665Z" fill="#FFCA05"/>
<path d="M53.6211 28.8365L55.2768 27.6253H53.2307L52.5934 25.6639L51.9584 27.6253H49.9076L51.5656 28.8365L50.9377 30.7956L52.5934 29.5844L54.2491 30.7956L53.6211 28.8365Z" fill="#FFCA05"/>
<path d="M55.8977 37.3948L57.5534 36.1836H55.5073L54.87 34.2222L54.2373 36.1836H52.1865L53.8422 37.3948L53.2143 39.3586L54.87 38.145L56.5304 39.3586L55.8977 37.3948Z" fill="#FFCA05"/>
<path d="M53.614 45.9508L55.2721 44.7443H53.2236L52.5863 42.7805L51.9536 44.7443H49.9028L51.5632 45.9508L50.9329 47.9099L52.5863 46.701L54.2467 47.9099L53.614 45.9508Z" fill="#FFCA05"/>
<path d="M47.3842 52.2137L49.0422 51.0025H46.9961L46.3588 49.0458L45.7238 51.0025H43.673L45.3334 52.2137L44.7007 54.1752L46.3588 52.9616L48.0168 54.1752L47.3842 52.2137Z" fill="#FFCA05"/>
<path d="M38.8775 54.502L40.5378 53.2932H38.487L37.8521 51.3294L37.2171 53.2932H35.1663L36.8267 54.502L36.194 56.4658L37.8521 55.2523L39.5101 56.4658L38.8775 54.502Z" fill="#FFCA05"/>
<path d="M30.3685 52.2137L32.0289 51.0025H29.9804L29.3454 49.0458L28.7104 51.0025H26.662L28.3177 52.2137L27.685 54.1752L29.3454 52.9616L31.0011 54.1752L30.3685 52.2137Z" fill="#FFCA05"/>
<path d="M24.141 45.9508L25.799 44.7419H23.7506L23.1156 42.7782L22.4806 44.7419H20.4298L22.0902 45.9508L21.4576 47.9099L23.1156 46.701L24.7736 47.9099L24.141 45.9508Z" fill="#FFCA05"/>
<path d="M21.862 37.3948L23.5223 36.186H21.4715L20.8389 34.2222L20.2016 36.186H18.1508L19.8112 37.3948L19.1785 39.3586L20.8389 38.1427L22.4946 39.3586L21.862 37.3948Z" fill="#FFCA05"/>
<path d="M24.1362 28.8365L25.799 27.6276H23.7482L23.1132 25.6662L22.4758 27.6276H20.425L22.0854 28.8365L21.4528 30.7956L23.1132 29.5844L24.7689 30.7956L24.1362 28.8365Z" fill="#FFCA05"/>
<path d="M30.3638 22.5665L32.0265 21.3577H29.9757L29.3407 19.3962L28.7057 21.3577H26.6549L28.3153 22.5665L27.685 24.5279L29.3407 23.3167L30.9987 24.5279L30.3638 22.5665Z" fill="#FFCA05"/>
</g>
<defs>
<clipPath id="clip0_2_22284">
<rect width="100" height="71.9127" fill="white"/>
</clipPath>
</defs>
</svg>
